<svg width="27" height="28" viewBox="0 0 27 28" fill="none" xmlns="http://www.w3.org/2000/svg">
<path d="M17.2744 0.87207V4.65782" stroke="#6857E5" stroke-width="1.74419" stroke-linecap="round" stroke-linejoin="round"/>
<path d="M7.18848 0.87207V4.65782" stroke="#6857E5" stroke-width="1.74419" stroke-linecap="round" stroke-linejoin="round"/>
<path d="M22.9531 9.81696H1.50488" stroke="#6857E5" stroke-width="1.74419" stroke-linecap="round" stroke-linejoin="round"/>
<path d="M13.6709 25.7895H6.42381C3.35753 25.7895 0.87207 23.3695 0.87207 20.3869V8.48025C0.87207 5.49508 3.35753 3.07764 6.42381 3.07764H18.0296C21.0959 3.07764 23.5813 5.49769 23.5813 8.48025V14.9346" stroke="#6857E5" stroke-width="1.74419" stroke-linecap="round" stroke-linejoin="round"/>
<path d="M12.2332 16.6432C12.7905 16.6432 13.2483 16.1932 13.2483 15.6334C13.2483 15.0735 12.8036 14.6235 12.2437 14.6235H12.2306C11.6733 14.6235 11.2207 15.0735 11.2207 15.6334C11.2207 16.1932 11.6707 16.6432 12.2306 16.6432H12.2332Z" fill="#6857E5"/>
<path d="M6.5291 16.6432C7.08637 16.6432 7.54422 16.1932 7.54422 15.6334C7.54422 15.0735 7.09945 14.6235 6.53957 14.6235H6.52648C5.96922 14.6235 5.5166 15.0735 5.5166 15.6334C5.5166 16.1932 5.9666 16.6432 6.52648 16.6432H6.5291Z" fill="#6857E5"/>
<path d="M6.5291 20.4259C7.08637 20.4259 7.54422 19.9759 7.54422 19.416C7.54422 18.8561 7.09945 18.4061 6.53957 18.4061H6.52648C5.96922 18.4061 5.5166 18.8561 5.5166 19.416C5.5166 19.9759 5.9666 20.4259 6.52648 20.4259H6.5291Z" fill="#6857E5"/>
<path d="M20.7762 27.035C23.3977 27.035 25.5221 24.9106 25.5221 22.2891C25.5221 19.6676 23.3977 17.5432 20.7762 17.5432C18.1547 17.5432 16.0303 19.6676 16.0303 22.2891C16.0303 24.9106 18.1547 27.035 20.7762 27.035Z" stroke="#6857E5" stroke-width="1.74419" stroke-linecap="round" stroke-linejoin="round"/>
<path d="M22.5434 22.349H19.0088" stroke="#6857E5" stroke-width="1.74419" stroke-linecap="round" stroke-linejoin="round"/>
<path d="M20.7764 20.6174V24.165" stroke="#6857E5" stroke-width="1.74419" stroke-linecap="round" stroke-linejoin="round"/>
</svg>
