<svg width="27" height="28" viewBox="0 0 27 28" fill="none" xmlns="http://www.w3.org/2000/svg">
<path d="M7.40723 0.87207V4.79283" stroke="#6857E5" stroke-width="1.74419" stroke-miterlimit="10" stroke-linecap="round" stroke-linejoin="round"/>
<path d="M17.8613 0.87207V4.79283" stroke="#6857E5" stroke-width="1.74419" stroke-miterlimit="10" stroke-linecap="round" stroke-linejoin="round"/>
<path d="M1.52539 10.1384H23.743" stroke="#6857E5" stroke-width="1.74419" stroke-miterlimit="10" stroke-linecap="round" stroke-linejoin="round"/>
<path d="M22.0552 18.8676L17.4287 23.4941C17.2458 23.6771 17.0758 24.0169 17.0366 24.2652L16.7883 26.0295C16.6968 26.6699 17.1412 27.1143 17.7816 27.0228L19.5459 26.7745C19.7942 26.7353 20.1471 26.5653 20.317 26.3824L24.9435 21.7559C25.7407 20.9587 26.1197 20.0308 24.9435 18.8545C23.7803 17.6914 22.8524 18.0704 22.0552 18.8676Z" stroke="#6857E5" stroke-width="1.74419" stroke-miterlimit="10" stroke-linecap="round" stroke-linejoin="round"/>
<path d="M21.3896 19.5344C21.7817 20.9459 22.8795 22.0437 24.291 22.4358" stroke="#6857E5" stroke-width="1.74419" stroke-miterlimit="10" stroke-linecap="round" stroke-linejoin="round"/>
<path d="M12.6343 27.0111H7.40666C2.83245 27.0111 0.87207 24.3972 0.87207 20.4765V9.36766C0.87207 5.44691 2.83245 2.83307 7.40666 2.83307H17.862C22.4362 2.83307 24.3966 5.44691 24.3966 9.36766V13.9419" stroke="#6857E5" stroke-width="1.74419" stroke-miterlimit="10" stroke-linecap="round" stroke-linejoin="round"/>
<path d="M12.6253 16.1624H12.6371" stroke="#6857E5" stroke-width="1.74419" stroke-linecap="round" stroke-linejoin="round"/>
<path d="M7.79331 16.1624H7.80504" stroke="#6857E5" stroke-width="1.74419" stroke-linecap="round" stroke-linejoin="round"/>
<path d="M7.79331 20.0822H7.80504" stroke="#6857E5" stroke-width="1.74419" stroke-linecap="round" stroke-linejoin="round"/>
</svg>
