<svg width="28" height="28" viewBox="0 0 28 28" fill="none" xmlns="http://www.w3.org/2000/svg">
<path d="M9.76424 6.62234L19.6276 9.68339C21.9692 10.4159 22.0084 13.6994 19.6799 14.4712L16.9721 15.3869C16.2265 15.6354 15.6247 16.2241 15.3892 16.9697L14.4735 19.6907C13.7017 22.0061 10.3922 21.9668 9.68576 19.6252L6.61163 9.76188C6.02296 7.82583 7.84128 6.00751 9.76424 6.62234Z" stroke="#6857E5" stroke-width="1.74419" stroke-linecap="round" stroke-linejoin="round"/>
<path d="M19.7093 0.87207H8.19765C4.15184 0.87207 0.87207 4.15184 0.87207 8.19765V19.7093C0.87207 23.7551 4.15184 27.0349 8.19765 27.0349H19.7093C23.7551 27.0349 27.0349 23.7551 27.0349 19.7093V8.19765C27.0349 4.15184 23.7551 0.87207 19.7093 0.87207Z" stroke="#6857E5" stroke-width="1.74419"/>
</svg>
