<svg width="45" height="43" viewBox="0 0 45 43" fill="none" xmlns="http://www.w3.org/2000/svg">
<path d="M20.734 2.17053C20.8379 1.8495 21.0426 1.56937 21.3186 1.3706C21.5945 1.17182 21.9274 1.0647 22.2691 1.0647C22.6108 1.0647 22.9436 1.17182 23.2196 1.3706C23.4955 1.56937 23.7002 1.8495 23.8042 2.17053L27.7055 14.0053C27.8104 14.3252 28.0156 14.6041 28.2914 14.8017C28.5673 14.9993 28.8996 15.1056 29.2405 15.1052H41.8604C42.2016 15.1039 42.5344 15.2094 42.8108 15.4066C43.0873 15.6038 43.2931 15.8824 43.3988 16.2023C43.5044 16.5222 43.5043 16.867 43.3986 17.1868C43.2928 17.5067 43.0868 17.7853 42.8103 17.9823L32.5948 25.2965C32.3194 25.4938 32.1145 25.772 32.0093 26.0913C31.9042 26.4106 31.9043 26.7546 32.0096 27.0738L35.9109 38.9086C36.0147 39.2281 36.0135 39.5718 35.9075 39.8907C35.8016 40.2095 35.5962 40.4873 35.3208 40.6843C35.0454 40.8813 34.7139 40.9875 34.3736 40.9878C34.0334 40.9881 33.7017 40.8824 33.426 40.6859L23.2147 33.3759C22.9393 33.1784 22.6075 33.072 22.267 33.072C21.9264 33.072 21.5946 33.1784 21.3192 33.3759L11.1164 40.6901C10.8412 40.8896 10.5088 40.9977 10.1672 40.9987C9.82562 40.9998 9.49253 40.8938 9.21601 40.696C8.9395 40.4983 8.73386 40.219 8.62879 39.8984C8.52372 39.5779 8.52465 39.2327 8.63145 38.9128L12.5285 27.078C12.6338 26.7587 12.6339 26.4148 12.5288 26.0955C12.4237 25.7762 12.2187 25.498 11.9433 25.3007L1.73207 17.9823C1.45554 17.7853 1.24957 17.5067 1.14382 17.1868C1.03807 16.867 1.038 16.5222 1.14362 16.2023C1.24924 15.8824 1.4551 15.6038 1.73156 15.4066C2.00801 15.2094 2.34079 15.1039 2.68196 15.1052H15.2976C15.6386 15.1056 15.9709 14.9993 16.2467 14.8017C16.5225 14.6041 16.7277 14.3252 16.8327 14.0053L20.734 2.17053Z" fill="white" stroke="#6857E5" stroke-width="2.1294"/>
</svg>
